<mxfile host="app.diagrams.net" modified="2024-07-22T09:24:50.475Z" agent="Mozilla/5.0 (Windows NT 10.0; Win64; x64) AppleWebKit/537.36 (KHTML, like Gecko) Chrome/126.0.0.0 Safari/537.36" etag="axKTtF9SR7jfSriM1Gts" version="24.7.1" type="device">
  <diagram name="Page-1" id="Z3OfbXzfR4E6ArOhzidP">
    <mxGraphModel dx="778" dy="1357" grid="0" gridSize="10" guides="1" tooltips="1" connect="1" arrows="1" fold="1" page="0" pageScale="1" pageWidth="827" pageHeight="1169" background="#ffffff" math="0" shadow="0">
      <root>
        <mxCell id="0" />
        <mxCell id="1" parent="0" />
        <mxCell id="fd7v3jinNQP_lFuBxXi0-1" value="Actor" style="shape=umlActor;verticalLabelPosition=bottom;verticalAlign=top;html=1;outlineConnect=0;" vertex="1" parent="1">
          <mxGeometry x="196" y="-173" width="30" height="60" as="geometry" />
        </mxCell>
        <mxCell id="fd7v3jinNQP_lFuBxXi0-3" value="Actor" style="shape=umlActor;verticalLabelPosition=bottom;verticalAlign=top;html=1;outlineConnect=0;" vertex="1" parent="1">
          <mxGeometry x="721" y="-241" width="30" height="60" as="geometry" />
        </mxCell>
        <mxCell id="fd7v3jinNQP_lFuBxXi0-4" value="Actor" style="shape=umlActor;verticalLabelPosition=bottom;verticalAlign=top;html=1;outlineConnect=0;" vertex="1" parent="1">
          <mxGeometry x="721" y="-405" width="30" height="60" as="geometry" />
        </mxCell>
        <mxCell id="fd7v3jinNQP_lFuBxXi0-5" value="Customer&lt;div&gt;&lt;br&gt;&lt;/div&gt;" style="text;strokeColor=none;fillColor=none;html=1;align=center;verticalAlign=middle;whiteSpace=wrap;rounded=0;fontSize=16;" vertex="1" parent="1">
          <mxGeometry x="181" y="-83" width="60" height="30" as="geometry" />
        </mxCell>
        <mxCell id="fd7v3jinNQP_lFuBxXi0-7" value="Admin&lt;div&gt;&lt;br&gt;&lt;/div&gt;" style="text;strokeColor=none;fillColor=none;html=1;align=center;verticalAlign=middle;whiteSpace=wrap;rounded=0;fontSize=16;" vertex="1" parent="1">
          <mxGeometry x="706" y="-158" width="60" height="30" as="geometry" />
        </mxCell>
        <mxCell id="fd7v3jinNQP_lFuBxXi0-8" value="Supplier&lt;div&gt;&lt;br&gt;&lt;/div&gt;" style="text;strokeColor=none;fillColor=none;html=1;align=center;verticalAlign=middle;whiteSpace=wrap;rounded=0;fontSize=16;" vertex="1" parent="1">
          <mxGeometry x="710" y="-323" width="60" height="30" as="geometry" />
        </mxCell>
        <mxCell id="fd7v3jinNQP_lFuBxXi0-10" value="Browse Products" style="ellipse;whiteSpace=wrap;html=1;" vertex="1" parent="1">
          <mxGeometry x="403" y="-419" width="126" height="63" as="geometry" />
        </mxCell>
        <mxCell id="fd7v3jinNQP_lFuBxXi0-11" value="Adding to Cart" style="ellipse;whiteSpace=wrap;html=1;" vertex="1" parent="1">
          <mxGeometry x="407" y="-271" width="126" height="63" as="geometry" />
        </mxCell>
        <mxCell id="fd7v3jinNQP_lFuBxXi0-12" value="Login" style="ellipse;whiteSpace=wrap;html=1;" vertex="1" parent="1">
          <mxGeometry x="407" y="-345" width="126" height="63" as="geometry" />
        </mxCell>
        <mxCell id="fd7v3jinNQP_lFuBxXi0-13" value="Advertisements" style="ellipse;whiteSpace=wrap;html=1;" vertex="1" parent="1">
          <mxGeometry x="409" y="-181" width="126" height="63" as="geometry" />
        </mxCell>
        <mxCell id="fd7v3jinNQP_lFuBxXi0-14" value="Payment" style="ellipse;whiteSpace=wrap;html=1;" vertex="1" parent="1">
          <mxGeometry x="407" y="-96" width="126" height="63" as="geometry" />
        </mxCell>
        <mxCell id="fd7v3jinNQP_lFuBxXi0-15" value="Complete Checkout" style="ellipse;whiteSpace=wrap;html=1;" vertex="1" parent="1">
          <mxGeometry x="407" y="16" width="126" height="63" as="geometry" />
        </mxCell>
        <mxCell id="fd7v3jinNQP_lFuBxXi0-20" value="Actor" style="shape=umlActor;verticalLabelPosition=bottom;verticalAlign=top;html=1;outlineConnect=0;" vertex="1" parent="1">
          <mxGeometry x="717" y="-94.5" width="30" height="60" as="geometry" />
        </mxCell>
        <mxCell id="fd7v3jinNQP_lFuBxXi0-23" value="" style="endArrow=classic;html=1;rounded=0;fontSize=12;startSize=8;endSize=8;curved=1;" edge="1" parent="1">
          <mxGeometry width="50" height="50" relative="1" as="geometry">
            <mxPoint x="216.24" y="-161.14" as="sourcePoint" />
            <mxPoint x="408.99900523435576" y="-372.0025673562144" as="targetPoint" />
          </mxGeometry>
        </mxCell>
        <mxCell id="fd7v3jinNQP_lFuBxXi0-24" value="" style="endArrow=classic;html=1;rounded=0;fontSize=12;startSize=8;endSize=8;curved=1;entryX=0.056;entryY=0.709;entryDx=0;entryDy=0;entryPerimeter=0;" edge="1" parent="1" source="fd7v3jinNQP_lFuBxXi0-1" target="fd7v3jinNQP_lFuBxXi0-12">
          <mxGeometry width="50" height="50" relative="1" as="geometry">
            <mxPoint x="474" y="-117" as="sourcePoint" />
            <mxPoint x="524" y="-167" as="targetPoint" />
          </mxGeometry>
        </mxCell>
        <mxCell id="fd7v3jinNQP_lFuBxXi0-26" value="" style="endArrow=classic;html=1;rounded=0;fontSize=12;startSize=8;endSize=8;curved=1;" edge="1" parent="1" source="fd7v3jinNQP_lFuBxXi0-1" target="fd7v3jinNQP_lFuBxXi0-11">
          <mxGeometry width="50" height="50" relative="1" as="geometry">
            <mxPoint x="474" y="-117" as="sourcePoint" />
            <mxPoint x="524" y="-167" as="targetPoint" />
            <Array as="points" />
          </mxGeometry>
        </mxCell>
        <mxCell id="fd7v3jinNQP_lFuBxXi0-27" value="" style="endArrow=classic;html=1;rounded=0;fontSize=12;startSize=8;endSize=8;curved=1;exitX=1;exitY=1;exitDx=0;exitDy=0;exitPerimeter=0;" edge="1" parent="1" source="fd7v3jinNQP_lFuBxXi0-1" target="fd7v3jinNQP_lFuBxXi0-14">
          <mxGeometry width="50" height="50" relative="1" as="geometry">
            <mxPoint x="474" y="-117" as="sourcePoint" />
            <mxPoint x="524" y="-167" as="targetPoint" />
            <Array as="points">
              <mxPoint x="363" y="-57" />
            </Array>
          </mxGeometry>
        </mxCell>
        <mxCell id="fd7v3jinNQP_lFuBxXi0-28" value="" style="endArrow=classic;html=1;rounded=0;fontSize=12;startSize=8;endSize=8;curved=1;" edge="1" parent="1" target="fd7v3jinNQP_lFuBxXi0-13">
          <mxGeometry width="50" height="50" relative="1" as="geometry">
            <mxPoint x="709" y="-348" as="sourcePoint" />
            <mxPoint x="585" y="-208" as="targetPoint" />
          </mxGeometry>
        </mxCell>
        <mxCell id="fd7v3jinNQP_lFuBxXi0-30" value="" style="endArrow=classic;html=1;rounded=0;fontSize=12;startSize=8;endSize=8;curved=1;exitX=0.061;exitY=0.741;exitDx=0;exitDy=0;exitPerimeter=0;" edge="1" parent="1" source="fd7v3jinNQP_lFuBxXi0-13">
          <mxGeometry width="50" height="50" relative="1" as="geometry">
            <mxPoint x="403" y="-132" as="sourcePoint" />
            <mxPoint x="229" y="-140" as="targetPoint" />
          </mxGeometry>
        </mxCell>
        <mxCell id="fd7v3jinNQP_lFuBxXi0-31" value="" style="endArrow=none;dashed=1;html=1;rounded=0;fontSize=12;startSize=8;endSize=8;curved=1;" edge="1" parent="1">
          <mxGeometry width="50" height="50" relative="1" as="geometry">
            <mxPoint x="471" y="-38" as="sourcePoint" />
            <mxPoint x="474" y="12" as="targetPoint" />
            <Array as="points">
              <mxPoint x="471" y="44" />
            </Array>
          </mxGeometry>
        </mxCell>
        <mxCell id="fd7v3jinNQP_lFuBxXi0-32" value="" style="endArrow=classic;html=1;rounded=0;fontSize=12;startSize=8;endSize=8;curved=1;exitX=1;exitY=0.5;exitDx=0;exitDy=0;" edge="1" parent="1" source="fd7v3jinNQP_lFuBxXi0-14">
          <mxGeometry width="50" height="50" relative="1" as="geometry">
            <mxPoint x="474" y="-117" as="sourcePoint" />
            <mxPoint x="711" y="-43" as="targetPoint" />
          </mxGeometry>
        </mxCell>
        <mxCell id="fd7v3jinNQP_lFuBxXi0-33" value="" style="endArrow=classic;html=1;rounded=0;fontSize=12;startSize=8;endSize=8;curved=1;exitX=1;exitY=0.5;exitDx=0;exitDy=0;" edge="1" parent="1" source="fd7v3jinNQP_lFuBxXi0-12" target="fd7v3jinNQP_lFuBxXi0-3">
          <mxGeometry width="50" height="50" relative="1" as="geometry">
            <mxPoint x="474" y="-117" as="sourcePoint" />
            <mxPoint x="524" y="-167" as="targetPoint" />
          </mxGeometry>
        </mxCell>
        <mxCell id="fd7v3jinNQP_lFuBxXi0-34" value="" style="endArrow=classic;html=1;rounded=0;fontSize=12;startSize=8;endSize=8;curved=1;exitX=0.96;exitY=0.243;exitDx=0;exitDy=0;exitPerimeter=0;" edge="1" parent="1" source="fd7v3jinNQP_lFuBxXi0-11">
          <mxGeometry width="50" height="50" relative="1" as="geometry">
            <mxPoint x="474" y="-117" as="sourcePoint" />
            <mxPoint x="716" y="-340" as="targetPoint" />
          </mxGeometry>
        </mxCell>
        <mxCell id="fd7v3jinNQP_lFuBxXi0-35" value="" style="endArrow=classic;html=1;rounded=0;fontSize=12;startSize=8;endSize=8;curved=1;exitX=0.722;exitY=0.118;exitDx=0;exitDy=0;exitPerimeter=0;" edge="1" parent="1" source="fd7v3jinNQP_lFuBxXi0-36">
          <mxGeometry width="50" height="50" relative="1" as="geometry">
            <mxPoint x="539" y="-386" as="sourcePoint" />
            <mxPoint x="720" y="-371" as="targetPoint" />
          </mxGeometry>
        </mxCell>
        <mxCell id="fd7v3jinNQP_lFuBxXi0-36" value="" style="rounded=0;whiteSpace=wrap;html=1;fillColor=none;" vertex="1" parent="1">
          <mxGeometry x="353" y="-447" width="245" height="550" as="geometry" />
        </mxCell>
        <mxCell id="fd7v3jinNQP_lFuBxXi0-37" value="Payment Gateway&lt;div&gt;&lt;br&gt;&lt;/div&gt;" style="text;strokeColor=none;fillColor=none;html=1;align=center;verticalAlign=middle;whiteSpace=wrap;rounded=0;fontSize=16;" vertex="1" parent="1">
          <mxGeometry x="706" y="-1" width="60" height="30" as="geometry" />
        </mxCell>
      </root>
    </mxGraphModel>
  </diagram>
</mxfile>
